# xmcd CD database file
#
# Track frame offsets:
#	150
#	18808
#	42283
#	65246
#	94082
#	118327
#	134143
#	147433
#	160321
#	173006
#	186898
#	201495
#	216684
#	232564
#	249510
#	263810
#	279891
#	297316
#	310292
#	322266
#	334853
#
# Disc length: 4645 seconds
#
# Revision: 0
# Processed by: cddbd v1.5.2PL0 Copyright (c) Steve Scherf et al.
# Submitted via: CDex 1.70beta2
#
DISCID=51122315
DTITLE=Various Artist - Jazz Roads CD379 - Bebop - White Bebop Boys Vol.3 (1948-49)
DYEAR=1900
DGENRE=Jazz
TTITLE0=Tadd Dameron Quintet - The Chase
TTITLE1=Tadd Dameron Quintet - Wahoo
TTITLE2=Tadd Dameron Quintet - Lady Be Good (Rifftide)
TTITLE3=Tadd Dameron Quintet - Wahoo
TTITLE4=Tadd Dameron Quintet - Anthropology
TTITLE5=Tadd Dameron Quintet - Tiny's Blues
TTITLE6=Kai Winding Sextet - Bop City
TTITLE7=Kai Winding Sextet - Wallington's Godchild
TTITLE8=Kai Winding Sextet - Crossing The Channel
TTITLE9=Kai Winding Sextet - Sleepy Bop
TTITLE10=Stan Getz And His Five Brothers - Battleground
TTITLE11=Stan Getz And His Five Brothers - Battleground
TTITLE12=Stan Getz And His Five Brothers - Four And One Moore
TTITLE13=Stan Getz And His Five Brothers - Four And One Moore
TTITLE14=Stan Getz And His Five Brothers - Five Brothers
TTITLE15=Stan Getz And His Five Brothers - Five Brothers
TTITLE16=Stan Getz And His Five Brothers - Battle Of The Saxes
TTITLE17=Stan Getz Boppers - Stan Gets Along
TTITLE18=Stan Getz Boppers - Stanﾒs Mood
TTITLE19=Stan Getz Boppers - Slow
TTITLE20=Stan Getz Boppers - Fast
EXTD=
EXTT0=
EXTT1=
EXTT2=
EXTT3=
EXTT4=
EXTT5=
EXTT6=
EXTT7=
EXTT8=
EXTT9=
EXTT10=
EXTT11=
EXTT12=
EXTT13=
EXTT14=
EXTT15=
EXTT16=
EXTT17=
EXTT18=
EXTT19=
EXTT20=
PLAYORDER=
